####
#
# OBJ File Generated by Meshlab
#
####
# Object ToiletSeat_All_Flattened_Simplified_100Faces.obj
#
# Vertices: 68
# Faces: 100
#
####
vn 0.026018 0.920085 0.390853
v 0.070128 0.017097 0.148898
vn 0.064302 -0.972813 0.222484
v -0.056746 -0.195749 0.140227
vn -0.859196 0.502736 0.095079
v -0.141522 -0.003155 0.066242
vn -0.475572 0.287833 -0.831254
v 0.008077 -0.071134 -0.103482
vn 0.810419 -0.513490 -0.282045
v 0.138318 -0.006015 -0.115475
vn 0.694041 0.713192 0.098307
v 0.075349 -0.025657 0.025365
vn 0.832827 -0.527932 0.166394
v 0.151363 -0.366715 0.074040
vn -0.236276 -0.160573 -0.958327
v -0.033506 -0.299054 -0.103696
vn -0.272921 0.531378 -0.801967
v -0.004742 -0.097491 -0.061716
vn 0.248377 -0.717478 -0.650796
v 0.094405 -0.360379 -0.078738
vn 0.795925 0.195198 0.573063
v 0.083135 -0.296397 0.198514
vn -0.103468 -0.877625 0.468048
v -0.096332 -0.362304 0.272043
vn 0.552995 -0.414455 0.722789
v 0.045798 -0.362502 0.248955
vn -0.657380 0.729778 0.187820
v -0.099931 -0.114380 0.135143
vn -0.778043 -0.391233 0.491514
v -0.200558 -0.340118 0.235417
vn -0.807100 -0.187050 -0.560001
v -0.164228 -0.314642 -0.016756
vn 0.147928 0.307963 0.939828
v -0.028845 -0.267436 0.295922
vn -0.757669 0.199788 0.621307
v -0.028893 -0.084289 -0.023631
vn 0.775290 -0.004992 0.631586
v 0.109420 -0.076243 -0.018206
vn 0.138931 0.989391 0.042476
v 0.086069 0.009967 -0.087931
vn -0.580679 0.449597 -0.678730
v -0.000993 -0.051206 -0.143559
vn -0.087336 -0.894777 -0.437888
v 0.081171 -0.254697 -0.190887
vn 0.685728 0.331076 -0.648202
v 0.112931 -0.089610 -0.171323
vn 0.498642 0.540143 -0.677939
v 0.215524 -0.075980 -0.293912
vn -0.023486 -0.998886 0.040937
v 0.112760 -0.261207 -0.187440
vn 0.355756 0.002164 0.934576
v 0.159314 -0.149764 -0.094620
vn -0.925019 0.259516 0.277474
v 0.020780 -0.137019 -0.153579
vn -0.795286 0.584611 -0.160467
v 0.068923 0.085755 -0.262741
vn 0.497991 -0.463622 -0.732844
v 0.158395 -0.212877 -0.305146
vn -0.222631 -0.419551 0.880007
v 0.126847 -0.132007 -0.162232
vn 0.927207 0.288832 0.238461
v 0.198993 -0.001165 -0.220264
vn 0.098142 0.444503 0.890385
v 0.118814 0.013610 -0.152023
vn 0.851599 -0.123386 0.509465
v 0.120159 -0.367276 0.200715
vn 0.898672 0.432219 0.074666
v 0.262060 -0.342215 -0.154240
vn -0.508957 0.555848 0.657264
v -0.140929 -0.319946 0.277707
vn -0.555650 -0.813500 0.171670
v -0.175593 -0.425162 0.186199
vn 0.485031 0.505457 -0.713623
v 0.182701 -0.307880 -0.275071
vn -0.394621 -0.588880 -0.705333
v -0.058051 -0.386403 -0.237232
vn 0.215698 -0.730106 0.648398
v 0.004672 -0.420241 0.295730
vn 0.866846 -0.483808 -0.120451
v 0.258279 -0.402723 -0.165511
vn 0.219232 -0.879958 -0.421440
v 0.212674 -0.403881 -0.234342
vn 0.377473 0.791881 0.480041
v 0.048013 -0.301138 0.267312
vn -0.412279 0.643610 -0.644820
v 0.003587 -0.320201 -0.276780
vn -0.847649 0.489622 -0.204358
v -0.215975 -0.323759 0.030655
vn -0.125414 0.990272 -0.060279
v -0.070440 -0.297332 -0.078421
vn -0.577258 -0.686838 0.441619
v -0.027055 -0.741587 -0.225093
vn -0.830836 -0.432141 -0.350664
v -0.034878 -0.726749 -0.325794
vn -0.015422 -0.763198 -0.645980
v 0.038420 -0.741676 -0.397106
vn 0.810013 0.370525 0.454522
v 0.277498 -0.389156 -0.060756
vn -0.959167 -0.062196 0.275917
v -0.094079 -0.548521 -0.227653
vn 0.339807 -0.381241 0.859759
v 0.266167 -0.684517 -0.077823
vn -0.206091 -0.727364 0.654575
v 0.137205 -0.739538 -0.138503
vn -0.537944 0.748948 0.386903
v -0.045633 -0.349227 -0.201368
vn 0.828977 -0.557912 -0.039143
v 0.353258 -0.724945 -0.230959
vn -0.636732 0.320140 -0.701486
v -0.019615 -0.377145 -0.414818
vn 0.509764 0.729769 -0.455607
v 0.253530 -0.381402 -0.292527
vn -0.496092 -0.020167 0.868036
v 0.049200 -0.406400 -0.125600
vn -0.136931 0.464685 0.874824
v 0.221886 -0.375812 -0.038470
vn -0.363788 -0.931127 0.025698
v -0.045036 -0.746328 -0.274747
vn 0.373656 -0.908812 0.185585
v 0.270515 -0.772817 -0.208724
vn 0.359974 -0.616854 -0.699936
v 0.236490 -0.744723 -0.290023
vn 0.918524 0.266576 -0.291978
v 0.331896 -0.684318 -0.211041
vn -0.033185 0.373736 0.926942
v 0.197350 -0.680410 -0.108311
vn -0.011013 0.797857 -0.602747
v 0.002525 -0.676320 -0.382677
vn -0.904562 0.172248 -0.389996
v 0.118985 -0.336891 -0.290053
vn 0.912336 -0.155972 0.378572
v 0.180735 -0.085943 -0.264922
vn 0.866075 -0.240094 0.438485
v 0.039594 -0.297019 -0.050610
vn -0.914769 0.271870 -0.298804
v 0.071738 -0.149259 -0.063496
# 68 vertices, 0 vertices normals

f 4//4 5//5 2//2
f 5//5 1//1 2//2
f 2//2 1//1 3//3
f 4//4 3//3 1//1
f 5//5 4//4 1//1
f 4//4 2//2 3//3
f 6//6 11//11 7//7
f 16//16 8//8 10//10
f 15//15 16//16 10//10
f 10//10 9//9 6//6
f 10//10 6//6 7//7
f 9//9 10//10 8//8
f 17//17 11//11 6//6
f 12//12 15//15 10//10
f 13//13 11//11 17//17
f 17//17 15//15 12//12
f 7//7 12//12 10//10
f 7//7 13//13 12//12
f 11//11 13//13 7//7
f 9//9 14//14 6//6
f 12//12 13//13 17//17
f 14//14 9//9 16//16
f 15//15 17//17 14//14
f 6//6 14//14 17//17
f 15//15 14//14 16//16
f 9//9 8//8 16//16
f 19//19 18//18 22//22
f 18//18 20//20 21//21
f 21//21 22//22 18//18
f 23//23 21//21 20//20
f 22//22 21//21 23//23
f 19//19 22//22 23//23
f 23//23 20//20 19//19
f 18//18 19//19 20//20
f 26//26 24//24 27//27
f 26//26 27//27 25//25
f 25//25 24//24 26//26
f 25//25 27//27 24//24
f 30//30 32//32 28//28
f 29//29 30//30 28//28
f 31//31 29//29 28//28
f 31//31 30//30 29//29
f 31//31 32//32 30//30
f 32//32 31//31 28//28
f 44//44 38//38 36//36
f 36//36 35//35 44//44
f 39//39 35//35 36//36
f 39//39 42//42 35//35
f 41//41 39//39 36//36
f 39//39 41//41 40//40
f 41//41 36//36 38//38
f 37//37 42//42 34//34
f 33//33 34//34 42//42
f 39//39 33//33 42//42
f 40//40 37//37 34//34
f 37//37 40//40 41//41
f 43//43 45//45 37//37
f 44//44 45//45 43//43
f 39//39 40//40 33//33
f 34//34 33//33 40//40
f 38//38 37//37 41//41
f 37//37 45//45 42//42
f 35//35 42//42 45//45
f 45//45 44//44 35//35
f 43//43 37//37 38//38
f 43//43 38//38 44//44
f 48//48 56//56 54//54
f 52//52 48//48 54//54
f 55//55 47//47 50//50
f 57//57 58//58 53//53
f 46//46 48//48 52//52
f 46//46 47//47 48//48
f 55//55 56//56 48//48
f 53//53 55//55 50//50
f 50//50 46//46 57//57
f 50//50 47//47 46//46
f 52//52 57//57 46//46
f 56//56 55//55 53//53
f 56//56 53//53 58//58
f 49//49 56//56 58//58
f 49//49 58//58 51//51
f 50//50 57//57 53//53
f 55//55 48//48 47//47
f 58//58 52//52 51//51
f 54//54 51//51 52//52
f 54//54 49//49 51//51
f 56//56 49//49 54//54
f 57//57 52//52 58//58
f 59//59 61//61 60//60
f 64//64 61//61 59//59
f 62//62 63//63 60//60
f 63//63 59//59 60//60
f 60//60 61//61 62//62
f 62//62 64//64 63//63
f 59//59 63//63 64//64
f 64//64 62//62 61//61
f 68//68 67//67 66//66
f 68//68 66//66 65//65
f 68//68 65//65 67//67
f 65//65 66//66 67//67
# 100 faces, 0 coords texture

# End of File
