####
#
# OBJ File Generated by Meshlab
#
####
# Object TrashcanBuoyancyMesh.obj
#
# Vertices: 12
# Faces: 20
#
####
vn 0.720631 0.526790 0.450758
v 0.177067 1.230251 0.102585
vn -0.351474 0.754618 0.554092
v -0.176899 1.218687 0.127890
vn 0.170210 0.629322 -0.758276
v 0.109211 1.238383 -0.175399
vn 0.252640 -0.832191 -0.493589
v 0.091485 0.149669 -0.216936
vn 0.848489 -0.525458 0.062927
v 0.208524 0.167776 0.077865
vn 0.746199 0.527187 -0.406524
v 0.193250 1.229497 -0.136189
vn 0.085996 0.157402 0.983783
v 0.090141 1.122573 0.162035
vn -0.783944 0.412563 -0.463922
v -0.151941 1.219316 -0.182423
vn 0.861804 -0.139807 -0.487593
v 0.230013 0.270561 -0.170113
vn -0.648533 -0.559380 0.516235
v -0.197407 0.145693 0.164046
vn 0.443930 -0.573883 0.688175
v 0.173595 0.174242 0.201063
vn -0.368123 -0.353975 -0.859760
v -0.146296 0.169757 -0.242761
# 12 vertices, 0 vertices normals

f 3//3 2//2 1//1
f 1//1 7//7 11//11
f 3//3 6//6 9//9
f 7//7 2//2 10//10
f 1//1 11//11 5//5
f 1//1 2//2 7//7
f 8//8 2//2 3//3
f 8//8 3//3 12//12
f 9//9 6//6 1//1
f 6//6 3//3 1//1
f 11//11 4//4 5//5
f 1//1 5//5 9//9
f 4//4 9//9 5//5
f 4//4 3//3 9//9
f 4//4 12//12 3//3
f 8//8 10//10 2//2
f 11//11 10//10 4//4
f 10//10 12//12 4//4
f 8//8 12//12 10//10
f 10//10 11//11 7//7
# 20 faces, 0 coords texture

# End of File
